<svg width="24" height="24" viewBox="0 0 24 24" fill="none" xmlns="http://www.w3.org/2000/svg">
<path d="M11.999 7.37695C10.7726 7.37695 9.59651 7.86412 8.72934 8.73129C7.86217 9.59846 7.375 10.7746 7.375 12.001C7.375 13.2273 7.86217 14.4034 8.72934 15.2706C9.59651 16.1378 10.7726 16.625 11.999 16.625C13.2254 16.625 14.4015 16.1378 15.2687 15.2706C16.1358 14.4034 16.623 13.2273 16.623 12.001C16.623 10.7746 16.1358 9.59846 15.2687 8.73129C14.4015 7.86412 13.2254 7.37695 11.999 7.37695ZM11.999 15.004C11.2023 15.004 10.4382 14.6875 9.87485 14.1241C9.31149 13.5607 8.995 12.7967 8.995 12C8.995 11.2032 9.31149 10.4392 9.87485 9.8758C10.4382 9.31245 11.2023 8.99595 11.999 8.99595C12.7957 8.99595 13.5598 9.31245 14.1231 9.8758C14.6865 10.4392 15.003 11.2032 15.003 12C15.003 12.7967 14.6865 13.5607 14.1231 14.1241C13.5598 14.6875 12.7957 15.004 11.999 15.004Z" fill="white"/>
<path d="M16.806 8.28491C17.4014 8.28491 17.884 7.80227 17.884 7.20691C17.884 6.61154 17.4014 6.12891 16.806 6.12891C16.2107 6.12891 15.728 6.61154 15.728 7.20691C15.728 7.80227 16.2107 8.28491 16.806 8.28491Z" fill="white"/>
<path d="M20.533 6.11113C20.3015 5.51331 19.9477 4.97041 19.4943 4.51719C19.0409 4.06396 18.4979 3.7104 17.9 3.47913C17.2003 3.21648 16.4611 3.07447 15.714 3.05913C14.751 3.01713 14.446 3.00513 12.004 3.00513C9.56195 3.00513 9.24895 3.00513 8.29395 3.05913C7.54734 3.07368 6.80871 3.21573 6.10995 3.47913C5.51189 3.71013 4.96872 4.0636 4.51529 4.51686C4.06186 4.97011 3.70818 5.51315 3.47695 6.11113C3.21426 6.81074 3.07257 7.54996 3.05795 8.29713C3.01495 9.25913 3.00195 9.56413 3.00195 12.0071C3.00195 14.4491 3.00195 14.7601 3.05795 15.7171C3.07295 16.4651 3.21395 17.2031 3.47695 17.9041C3.70883 18.5019 4.06285 19.0447 4.51639 19.4979C4.96993 19.9511 5.51302 20.3047 6.11095 20.5361C6.80839 20.8093 7.54733 20.9615 8.29595 20.9861C9.25895 21.0281 9.56395 21.0411 12.006 21.0411C14.448 21.0411 14.761 21.0411 15.716 20.9861C16.4631 20.9709 17.2022 20.8293 17.902 20.5671C18.4997 20.3353 19.0426 19.9814 19.4959 19.5281C19.9493 19.0748 20.3031 18.5319 20.535 17.9341C20.798 17.2341 20.939 16.4961 20.954 15.7481C20.997 14.7861 21.01 14.4811 21.01 12.0381C21.01 9.59513 21.01 9.28513 20.954 8.32813C20.9423 7.5704 20.7999 6.82038 20.533 6.11113ZM19.315 15.6431C19.3085 16.2194 19.2033 16.7904 19.004 17.3311C18.8538 17.72 18.6239 18.0731 18.329 18.3678C18.0342 18.6625 17.6809 18.8922 17.292 19.0421C16.7572 19.2406 16.1923 19.3458 15.622 19.3531C14.672 19.3971 14.404 19.4081 11.968 19.4081C9.52995 19.4081 9.28095 19.4081 8.31295 19.3531C7.74288 19.3462 7.17828 19.2409 6.64395 19.0421C6.25364 18.8931 5.89896 18.6638 5.60284 18.3691C5.30673 18.0744 5.07579 17.7207 4.92495 17.3311C4.7284 16.7962 4.62326 16.232 4.61395 15.6621C4.57095 14.7121 4.56095 14.4441 4.56095 12.0081C4.56095 9.57113 4.56095 9.32213 4.61395 8.35313C4.62042 7.77715 4.72561 7.20655 4.92495 6.66613C5.22995 5.87713 5.85495 5.25613 6.64395 4.95413C7.17854 4.75627 7.74298 4.65109 8.31295 4.64313C9.26395 4.60013 9.53095 4.58813 11.968 4.58813C14.405 4.58813 14.655 4.58813 15.622 4.64313C16.1924 4.64999 16.7573 4.7552 17.292 4.95413C17.6809 5.1044 18.0341 5.33433 18.3289 5.62916C18.6238 5.92399 18.8537 6.2772 19.004 6.66613C19.2005 7.20108 19.3056 7.76529 19.315 8.33513C19.358 9.28613 19.369 9.55313 19.369 11.9901C19.369 14.4261 19.369 14.6881 19.326 15.6441H19.315V15.6431Z" fill="white"/>
</svg>
