<svg width="144" height="144" viewBox="0 0 144 144" fill="none" xmlns="http://www.w3.org/2000/svg">
<g clip-path="url(#clip0)">
<g clip-path="url(#clip1)">
<path d="M47.8161 92.7717L75.2809 85.4313L46.7909 84.5151L61.1144 60.4692L41.4894 78.6638L33.4456 52.8382L32.5977 79.7679L8.4836 67.0047L28.3723 86.8022L0.852522 94.6734L29.3976 95.0588L15.0189 119.634L35.0894 99.8338L42.6878 127.267L42.7704 98.88L67.6497 113.099L47.8161 92.7717Z" fill="#FACC2A"/>
</g>
<path fill-rule="evenodd" clip-rule="evenodd" d="M51.6787 50.4427L46.9795 83.8791L110.896 92.862L115.596 59.4256L81.4045 70.8205L51.6787 50.4427Z" fill="#87D4FF"/>
<path fill-rule="evenodd" clip-rule="evenodd" d="M53.6475 36.4354L52.397 45.3329L82.1227 65.7108L116.314 54.3158L117.564 45.4183L53.6475 36.4354Z" fill="#87D4FF"/>
<path fill-rule="evenodd" clip-rule="evenodd" d="M128.233 50C128.233 50 128.233 43.0905 124.062 37.6775C119.077 32.8029 112 33.243 112 33.243C112 33.243 119.791 33.3424 124.223 29.8155C128.292 25.8301 128.002 18 128.002 18C128.002 18 128.859 26.6361 132.09 29.8155C135.346 32.9884 144 33.6729 144 33.6729C144 33.6729 135.869 34.3254 132.27 37.8438C128.659 41.3814 128.233 50 128.233 50Z" fill="#FACC2A"/>
</g>
<defs>
<clipPath id="clip0">
<rect width="144" height="144" fill="white"/>
</clipPath>
<clipPath id="clip1">
<rect width="80" height="80" fill="white" transform="translate(-6.62402 55.2341) rotate(-7.07848)"/>
</clipPath>
</defs>
</svg>
