<svg width="81" height="96" viewBox="0 0 81 96" fill="none" xmlns="http://www.w3.org/2000/svg">
<path d="M29.6401 74.376L46.5361 72.036L29.6401 69.384L39.9466 56.1255L26.9161 65.508L24.0361 49.536L21.5401 65.508L8.12563 56.1255L18.5041 69.384L1.53613 72.036L18.5041 74.376L8.12563 87.9458L21.5401 77.64L24.0361 94.536L26.1841 77.64L39.9466 87.9458L29.6401 74.376Z" fill="#FACC2A"/>
<path fill-rule="evenodd" clip-rule="evenodd" d="M41.69 77.1368C41.69 77.1368 41.69 61.0609 32.0619 48.4669C20.5568 37.1255 4.22168 38.1495 4.22168 38.1495C4.22168 38.1495 22.204 38.3808 32.434 30.1748C41.8256 20.9022 41.1558 2.68457 41.1558 2.68457C41.1558 2.68457 43.1354 22.7776 50.5921 30.1748C58.1084 37.5571 78.0824 39.1497 78.0824 39.1497C78.0824 39.1497 59.314 40.6678 51.0089 48.8539C42.674 57.0846 41.69 77.1368 41.69 77.1368Z" fill="white"/>
</svg>
